/* XPM */
static char *_28d490325a049fdc4bedeea17d5c463J9YKqlue3iLc2I2i[] = {
/* columns rows colors chars-per-pixel */
"40 40 157 2 ",
"   c None",
".  c #36404C",
"X  c #C35051",
"o  c #C35151",
"O  c #C45151",
"+  c #C45152",
"@  c #C45252",
"#  c #C75E5E",
"$  c #C75F5F",
"%  c #C85F60",
"&  c #C86061",
"*  c #CC6464",
"=  c #CD6565",
"-  c #CD6666",
";  c #CE6767",
":  c #CE6868",
">  c #CF6969",
",  c #B6984C",
"<  c #B7984C",
"1  c #B7994C",
"2  c #BA9E52",
"3  c #BC9F54",
"4  c #BCA055",
"5  c #BDA055",
"6  c #D1B375",
"7  c #D1B474",
"8  c #D1B475",
"9  c #D6BF76",
"0  c #D7C075",
"q  c #D6C076",
"w  c #CD7D80",
"e  c #CD7E81",
"r  c #CD7F82",
"t  c #7694BD",
"y  c #7694BE",
"u  c #7695BE",
"i  c #7795BE",
"p  c #7795BF",
"a  c #7897BF",
"s  c #7997C0",
"d  c #7998C0",
"f  c #7A99C1",
"g  c #7B99C1",
"h  c #7C9BC3",
"j  c #7D9CC4",
"k  c #7E9DC4",
"l  c #CD8083",
"z  c #CE8083",
"x  c #DF8F8F",
"c  c #E09090",
"v  c #E09191",
"b  c #E19292",
"n  c #CD9DA4",
"m  c #CE9DA4",
"M  c #CD9EA5",
"N  c #CF9EA4",
"B  c #CE9EA5",
"V  c #CF9FA5",
"C  c #CD9FA7",
"Z  c #CCB0BA",
"A  c #CCB1BB",
"S  c #CDB2BC",
"D  c #CCB3BD",
"F  c #E8A4A4",
"G  c #EEB2B2",
"H  c #EFB3B3",
"J  c #F0B4B4",
"K  c #E9D58D",
"L  c #E9D68E",
"P  c #EFDC94",
"I  c #EEDC95",
"U  c #EFDD95",
"Y  c #F6E69F",
"T  c #F7E69F",
"R  c #F6E79F",
"E  c #E6C4A1",
"W  c #E7C4A1",
"Q  c #E7C5A2",
"!  c #F2CBB9",
"~  c #F2CABA",
"^  c #F8E8A1",
"/  c #84A3C8",
"(  c #84A3C9",
")  c #86A3C8",
"_  c #86A3C9",
"`  c #85A4C9",
"'  c #86A4C8",
"]  c #85A4CA",
"[  c #85A5CA",
"{  c #86A5CA",
"}  c #86A6CB",
"|  c #87A6CB",
" . c #87A7CB",
".. c #89A9CB",
"X. c #8AA8CA",
"o. c #8BA8CB",
"O. c #8AA9CB",
"+. c #8AA8CC",
"@. c #8BA8CC",
"#. c #8BAACC",
"$. c #8DAACC",
"%. c #8CABCD",
"&. c #8FACCE",
"*. c #8EADCE",
"=. c #8FADCF",
"-. c #90ADCF",
";. c #90AECE",
":. c #97B3D1",
">. c #97B7D7",
",. c #98B5D2",
"<. c #99B5D2",
"1. c #9AB5D3",
"2. c #98B6D3",
"3. c #99B7D3",
"4. c #99B6D4",
"5. c #99B6D5",
"6. c #9AB7D4",
"7. c #9BB8D5",
"8. c #97B8D8",
"9. c #98B8D8",
"0. c #99B8D8",
"q. c #9BBBDA",
"w. c #9BBBDB",
"e. c #9CBBDA",
"r. c #C9BFCB",
"t. c #CABECA",
"y. c #ABCCE6",
"u. c #ABCDE6",
"i. c #ACCDE7",
"p. c #B2D4EB",
"a. c #B1D2EC",
"s. c #B2D3EC",
"d. c #B7D9EF",
"f. c #B8D9F0",
"g. c #B9DBF1",
"h. c #BADCF2",
"j. c #BCDEF3",
"k. c #BDDEF3",
"l. c #BCDFF3",
"z. c #BDDEF4",
"x. c #BDDFF4",
"c. c #BEDFF4",
"v. c #BDE0F4",
"b. c #BEE0F5",
"n. c #C6CEDE",
"m. c #C6CFDE",
"M. c #C7CFDF",
"N. c #C8CDDD",
"B. c #F4C0C0",
"V. c #F4C1C1",
"C. c #F5C2C2",
"Z. c #FBCFCF",
"A. c #C3DFF1",
"S. c #C2DFF3",
"D. c #C1E0F2",
"F. c #C1E0F4",
"G. c #C1E3F7",
/* pixels */
"                                      .                                         ",
"                            4.&.] f p . p f ] ;.4.                              ",
"                        $.s ] e.u.f.k.. k.d.u.e.] a $.                          ",
"                    ..s w.h.G.G.G.G.G.. G.G.G.G.G.h.e.f #.                      ",
"                :.p 4.x.G.G.G.G.G.G.G.. G.G.G.G.G.G.G.b.>.s ,.                  ",
"              &./ p.G.G.G.G.G.G.G.G.G.. G.G.G.G.G.G.G.G.G.a.j &.                ",
"            #.] k.G.G.G.G.G.G.G.G.G.G.. G.G.G.G.G.G.G.G.G.G.h.] ..              ",
"          &.] b.G.G.G.G.G.G.D.Z l & @ . @ % r S D.G.G.G.G.G.G.b.] ;.            ",
"        :.j h.G.G.G.G.G.D.N @ = c H V.. V.H c = @ N A.G.G.G.G.G.k.j 1.          ",
"        d s.G.G.G.G.G.M.% > J Z.Z.Z.Z.. Z.Z.Z.Z.J ; & n.G.G.G.G.G.a.a           ",
"      ..7.G.G.G.G.G.N.X b Z.Z.Z.Z.Z.Z.. Z.Z.Z.Z.Z.Z.c @ r.G.G.G.G.G.>.#.        ",
"      s v.G.G.G.G.N.@ b Z.Z.Z.Z.Z.Z.Z.. Z.Z.Z.Z.Z.Z.Z.F @ n.G.G.G.G.x.f         ",
"    $.w.G.G.G.G.D.& b Z.Z.Z.Z.Z.Z.Z.Z.. Z.Z.Z.Z.Z.Z.Z.Z.c % A.G.G.G.G.e.$.      ",
"    p h.G.G.G.G.N > Z.Z.Z.Z.Z.Z.Z.Z.Z.. Z.Z.Z.Z.Z.Z.Z.Z.Z.: C G.G.G.G.f.p       ",
"  4. .G.G.G.G.D.@ J Z.Z.Z.Z.Z.Z.~ 8 4 < 4 6 ~ Z.Z.Z.Z.Z.Z.H @ D.G.G.G.G.] 7.    ",
"  &.w.G.G.G.G.Z ; Z.Z.Z.Z.Z.Z.W 2 9 P ^ P q 2 Q Z.Z.Z.Z.Z.Z.= S G.G.G.G.e.;.    ",
"  ] u.G.G.G.G.r v Z.Z.Z.Z.Z.! 2 L ^ ^ ^ ^ ^ L 2 ~ Z.Z.Z.Z.Z.c l G.G.G.G.y./     ",
"  f f.G.G.G.G.& H Z.Z.Z.Z.Z.8 q ^ ^ ^ ^ ^ ^ ^ q 6 Z.Z.Z.Z.Z.G & G.G.G.G.f.g     ",
"  p k.G.G.G.G.X V.Z.Z.Z.Z.Z.3 P ^ ^ ^ ^ ^ ^ ^ P 4 Z.Z.Z.Z.Z.V.@ G.G.G.G.k.p     ",
". . . . . . . . . . . . . . < ^ ^ ^ ^ ^ ^ ^ ^ R 1 . . . . . . . . . . . . . .   ",
"  p k.G.G.G.G.X V.Z.Z.Z.Z.Z.3 P ^ ^ ^ ^ ^ ^ ^ P 4 Z.Z.Z.Z.Z.J @ G.G.G.G.v.p     ",
"  f f.G.G.G.G.& H Z.Z.Z.Z.Z.8 q ^ ^ ^ ^ ^ ^ T 9 8 Z.Z.Z.Z.Z.H - G.G.G.G.d.h     ",
"  / i.G.G.G.G.r c Z.Z.Z.Z.Z.~ 2 L ^ ^ ^ ^ ^ L 2 ~ Z.Z.Z.Z.Z.v l G.G.G.G.u./     ",
"  &.q.G.G.G.G.S = Z.Z.Z.Z.Z.Z.W 2 q P R P q 2 W Z.Z.Z.Z.Z.Z.= D G.G.G.G.q.;.    ",
"  1.] G.G.G.G.D.@ J Z.Z.Z.Z.Z.Z.~ 8 4 < 4 8 ~ Z.Z.Z.Z.Z.Z.H @ A.G.G.G.G.] 7.    ",
"    p h.G.G.G.G.N > Z.Z.Z.Z.Z.Z.Z.Z.Z.. Z.Z.Z.Z.Z.Z.Z.Z.Z.: C G.G.G.G.h.p       ",
"    $.q.G.G.G.G.A.# c Z.Z.Z.Z.Z.Z.Z.Z.. Z.Z.Z.Z.Z.Z.Z.Z.c & S.G.G.G.b.q.$.      ",
"      s b.G.G.G.G.N.X F Z.Z.Z.Z.Z.Z.Z.. Z.Z.Z.Z.Z.Z.Z.F @ n.G.G.G.G.b.s         ",
"      ..7.G.G.G.G.G.r.X c Z.Z.Z.Z.Z.Z.. Z.Z.Z.Z.Z.Z.c @ r.G.G.G.G.G.7.#.        ",
"        f a.G.G.G.G.G.N.% : J Z.Z.Z.Z.. Z.Z.Z.Z.H ; % n.G.G.G.G.G.a.d           ",
"        1.j h.G.G.G.G.G.G.m @ = c H V.. V.H c = @ N S.G.G.G.G.G.h.j 4.          ",
"          ;.] b.G.G.G.G.G.G.A.S r & X . X % r S A.G.G.G.G.G.G.x.] ;.            ",
"            $.] k.G.G.G.G.G.G.G.G.G.G.. G.G.G.G.G.G.G.G.G.G.j.( #.              ",
"              &.j a.G.G.G.G.G.G.G.G.G.. G.G.G.G.G.G.G.G.G.a.j &.                ",
"                1.a 8.x.G.G.G.G.G.G.G.. G.G.G.G.G.G.G.k.4.f 4.                  ",
"                    #.s e.h.G.G.G.G.G.. G.G.G.G.G.h.e.a ..                      ",
"                        $.p ] e.i.f.k.. k.f.u.w.] p $.                          ",
"                            7.&.] f p . p g ] ;.7.                              ",
"                                      .                                         ",
"                                                                                "
};
