/* XPM */
static char *a6b015d334874047fc553edb8a721795hawUfMqx5jhreseh[] = {
/* columns rows colors chars-per-pixel */
"40 40 224 2 ",
"   c None",
".  c #C74343",
"X  c #C74444",
"o  c #CD5656",
"O  c #CD5F61",
"+  c #CE6162",
"@  c #D57171",
"#  c #D67676",
"$  c #BA9B48",
"%  c #BB9B49",
"&  c #BB9D4A",
"*  c #BC9E4A",
"=  c #BC9F4A",
"-  c #BD9F4A",
";  c #BC9E4B",
":  c #BD9E4B",
">  c #B89C4C",
",  c #BC9D4C",
"<  c #BD9E4C",
"1  c #BD9F4C",
"2  c #BD9F4D",
"3  c #BDA04D",
"4  c #BFA14E",
"5  c #91896E",
"6  c #BDAB68",
"7  c #BBAC6C",
"8  c #C0A24E",
"9  c #C0A24F",
"0  c #CBB05B",
"q  c #CBB05C",
"w  c #CDB05F",
"e  c #CCB15F",
"r  c #D0B660",
"t  c #D4BB6A",
"y  c #DDC676",
"u  c #DDC777",
"i  c #E5CF77",
"p  c #E8D47B",
"a  c #66798F",
"s  c #697B8F",
"d  c #6C7E8F",
"f  c #667990",
"g  c #677A90",
"h  c #677B90",
"j  c #687A91",
"k  c #687B91",
"l  c #697B91",
"z  c #687B92",
"x  c #6A7B93",
"c  c #6A7C90",
"v  c #687C92",
"b  c #697C92",
"n  c #6A7C92",
"m  c #6B7D92",
"M  c #6B7C93",
"N  c #6A7D93",
"B  c #697E92",
"V  c #697E93",
"C  c #6D7F92",
"Z  c #6C7E93",
"A  c #6A7B94",
"S  c #6B7D94",
"D  c #6B7E94",
"F  c #4E7AB5",
"G  c #4F7AB5",
"H  c #507BB7",
"J  c #507CB7",
"K  c #517EB7",
"L  c #507CB8",
"P  c #507DB8",
"I  c #517DB8",
"U  c #517CB9",
"Y  c #517DB9",
"T  c #527DB8",
"R  c #527FB8",
"E  c #527EB9",
"W  c #537EB9",
"Q  c #71818F",
"!  c #6B8095",
"~  c #6C8094",
"^  c #6E8196",
"/  c #6E8198",
"(  c #708192",
")  c #708193",
"_  c #708293",
"`  c #728293",
"'  c #728393",
"]  c #738393",
"[  c #718294",
"{  c #758595",
"}  c #7C8A95",
"|  c #708399",
" . c #74879C",
".. c #768898",
"X. c #788998",
"o. c #7D8E9E",
"O. c #5380BA",
"+. c #5480BA",
"@. c #5480BB",
"#. c #6490CB",
"$. c #6591CB",
"%. c #6B97D0",
"&. c #6B97D1",
"*. c #6B97D2",
"=. c #6C97D1",
"-. c #77A3DD",
";. c #77A4DE",
":. c #78A4DD",
">. c #7EAAE4",
",. c #7FAAE4",
"<. c #7FABE5",
"1. c #979B87",
"2. c #808D95",
"3. c #899597",
"4. c #9FA184",
"5. c #A2A799",
"6. c #A9AC9A",
"7. c #8294A8",
"8. c #8496AB",
"9. c #8C9CAF",
"0. c #8C9DB2",
"q. c #8D9FB3",
"w. c #8E9FB4",
"e. c #8FA0B5",
"r. c #8FA1B5",
"t. c #93A4B9",
"y. c #94A7BB",
"u. c #97A8BB",
"i. c #97A9BC",
"p. c #98A9BD",
"a. c #98AABE",
"s. c #99AABE",
"d. c #DA8282",
"f. c #DB8888",
"g. c #C19AAD",
"h. c #E2AAAC",
"j. c #E2ABAD",
"k. c #C7C39C",
"l. c #CDC89C",
"z. c #DBCA9F",
"x. c #D9D19E",
"c. c #DCD49F",
"v. c #DED59F",
"b. c #E7D487",
"n. c #E9D386",
"m. c #EAD486",
"M. c #EAD587",
"N. c #EBD689",
"B. c #EAD989",
"V. c #EBDA8C",
"C. c #E0D69F",
"Z. c #F0DC90",
"A. c #F1DD90",
"S. c #F7E598",
"D. c #F9E79A",
"F. c #F9E79B",
"G. c #FCEB9F",
"H. c #E6DBA0",
"J. c #F7E8A2",
"K. c #F8E9A2",
"L. c #FEEDA2",
"P. c #FFEEA3",
"I. c #F2E7B4",
"U. c #F4EABD",
"Y. c #9CAEC1",
"T. c #9DAEC2",
"R. c #9EAFC3",
"E. c #9EB0C3",
"W. c #9FB1C5",
"Q. c #9FB2C4",
"!. c #B4A5C1",
"~. c #A1B3C6",
"^. c #A2B4C7",
"/. c #A2B4C8",
"(. c #A3B4C8",
"). c #A4B5C8",
"_. c #A4B5C9",
"`. c #A5B6CA",
"'. c #A8BACD",
"]. c #A9BACD",
"[. c #AABACE",
"{. c #ABBCCF",
"}. c #ABBDD0",
"|. c #ADBED2",
" X c #AFBFD3",
".X c #80ADE6",
"XX c #82AEE8",
"oX c #82AFE8",
"OX c #83B0E9",
"+X c #85B0EA",
"@X c #87B4EC",
"#X c #88B3ED",
"$X c #88B4ED",
"%X c #88B4EE",
"&X c #8EB5EC",
"*X c #8EB6ED",
"=X c #8BB7F0",
"-X c #93BCF1",
";X c #94BCF1",
":X c #AFC0D4",
">X c #B0C0D3",
",X c #B0C1D4",
"<X c #9DC2F2",
"1X c #9FC3F3",
"2X c #AACAF4",
"3X c #ACCBF4",
"4X c #F1CECE",
"5X c #F2D4D4",
"6X c #F2D5D5",
"7X c #F7F2DD",
"8X c #CDE0F8",
"9X c #CDE0F9",
"0X c #DDEAFB",
"qX c #DEEAFB",
"wX c #F9EBEB",
"eX c #FAEEEE",
"rX c #F9F6E7",
"tX c #ECF3FD",
"yX c #FBF1F1",
"uX c #FBF3F3",
"iX c #FCF6F6",
"pX c #FDFEFF",
"aX c #FFFFFE",
"sX c white",
/* pixels */
"                                                                                ",
"                                k D k g k D                                     ",
"                            D / w.~.}. X}.p. .D                                 ",
"                          n t.,X,X,X,X,X,X,X X7.D                               ",
"                        n Q.,X,X,X,X,X,X,X,X,X X^ g n                           ",
"                      D y.,X,X,X,X,X,X,X,X,X,X,X,X[.i.~                         ",
"                      | >X,X,X,X,X,X,X,X,X,X,X X,X,X,X[.D                       ",
"                    n r.,X,X,X,X,X,X,X,X,X,X,XQ./.,X,X:Xr.n                     ",
"                    D /.,X,X,X,X,X,X:X:X,X>X_.` ` u.,X,X_.n                     ",
"                    k {.,X,X,X,X,X>X>X:X,Xu.^ k.H.` p.:X Xh                     ",
"                    g  X,X,X,X>X{.).E.e...2.v.P.P.C.` {.}.h                     ",
"                    k [.,XE.o.C ' } 3.6.x.P.P.P.P.P.5.9./.C                     ",
"                    D R.R.` k.K.P.P.P.P.P.P.P.P.P.P.c.{ p.!                     ",
"                    A 0.X.l.P.P.P.P.P.P.P.P.P.P.P.P.J.n 8.                      ",
"                    5 ..s J.P.P.P.P.P.P.P.P.P.P.P.P.P.a [                       ",
"                    > d a P.P.P.P.P.P.P.P.P.P.P.P.P.P.a Q ;                     ",
"                    * 1.a P.P.P.P.P.P.P.P.P.P.P.P.P.P.a 4.;                     ",
"                    < 7 a P.P.P.P.P.P.P.P.P.P.P.P.P.P.a 6 *                     ",
"                      * $ P.P.P.P.P.P.P.P.P.P.P.P.P.P.; *                       ",
"                        * D.P.P.P.P.P.P.P.P.P.P.P.P.D.;                         ",
"                        8 M.P.P.P.P.P.P.P.P.P.P.P.P.n.8                         ",
"                          e P.P.P.P.P.P.P.P.P.P.P.P.e                           ",
"                          < N.P.P.P.P.P.P.P.P.P.P.M.3                           ",
"                            < Z.P.P.P.P.P.P.P.P.Z.3                             ",
"                              < y G.P.P.P.P.G.y <                               ",
"                              $ q 3 t S.S.t < 0 $                               ",
"                              ; p i r 9 8 r i p $                               ",
"                          T T z.b.p p p p p p b.z.T T                           ",
"                    J T #.;.XXsXsXrXU.V.B.I.7XsXsXXX:.#.T T                     ",
"                  J *.$X=X=X=XtXsXsXyXf.d.yXsXsXtX=X=X=X@X*.H                   ",
"                @.,.=X=X=X=X=X2XsX4Xo X . o 4XsX3X=X=X=X=X=X>.@.                ",
"              W +X=X=X=X=X=X=X=X0XeX# X . @ wX0X=X=X=X=X=X=X=X+XO.              ",
"            T <.=X=X=X=X=X=X=X=X<XsXiX. X iXpX1X=X=X=X=X=X=X=X=X<.G             ",
"          T *.=X=X=X=X=X=X=X=X=X=X9X5X. . 6X9X=X=X=X=X=X=X=X=X=X=X*.T           ",
"          T @X=X=X=X=X=X=X=X=X=X=X-Xh.. . h.-X=X=X=X=X=X=X=X=X=X=X$XP           ",
"          $.=X=X=X=X=X=X=X=X=X=X=X=Xg.. . g.=X=X=X=X=X=X=X=X=X=X=X=X#.          ",
"        T :.=X=X=X=X=X=X=X=X=X=X=X=X*X+ O *X=X=X=X=X=X=X=X=X=X=X=X=X;.O.        ",
"        T XX=X=X=X=X=X=X=X=X=X=X=X=X=X!.!.=X=X=X=X=X=X=X=X=X=X=X=X=XXXT         ",
"        G G G G G G G G G G G G G G G G G G G G G G G G G G G G G G G G         ",
"                                                                                "
};
