/* XPM */
static char *febc5af2276943a39622a61b28f6e960PzlypZbNa3hChp1T[] = {
/* columns rows colors chars-per-pixel */
"40 40 3 1 ",
"  c None",
". c #4788C7",
"X c #B6DCFE",
/* pixels */
"                                        ",
"                                        ",
"  ....................................  ",
"  .XXXXXX.XXXXXXXXXXXXX.XXXXXXXXXXXXX.  ",
"  .XXXXXX.XXXXXXXXXXXXX.XXXXXXXXXXXXX.  ",
"  .XXXXXX.XXXXXXXXXXXXX.XXXXXXXXXXXXX.  ",
"  .XXXXXX.XXXXXXXXXXXXX.XXXXXXXXXXXXX.  ",
"  .XXXXXX.XXXXXXXXXXXXX.XXXXXXXXXXXXX.  ",
"  .XXXXXX.XXXXXXXXXXXXX.XXXXXXXXXXXXX.  ",
"  ....................................  ",
"  .XXXXXXXXXXXXX.XXXXXXXXXXXXX.XXXXXX.  ",
"  .XXXXXXXXXXXXX.XXXXXXXXXXXXX.XXXXXX.  ",
"  .XXXXXXXXXXXXX.XXXXXXXXXXXXX.XXXXXX.  ",
"  .XXXXXXXXXXXXX.XXXXXXXXXXXXX.XXXXXX.  ",
"  .XXXXXXXXXXXXX.XXXXXXXXXXXXX.XXXXXX.  ",
"  .XXXXXXXXXXXXX.XXXXXXXXXXXXX.XXXXXX.  ",
"  ....................................  ",
"  .XXXXXX.XXXXXXXXXXXXX.XXXXXXXXXXXXX.  ",
"  .XXXXXX.XXXXXXXXXXXXX.XXXXXXXXXXXXX.  ",
"  .XXXXXX.XXXXXXXXXXXXX.XXXXXXXXXXXXX.  ",
"  .XXXXXX.XXXXXXXXXXXXX.XXXXXXXXXXXXX.  ",
"  .XXXXXX.XXXXXXXXXXXXX.XXXXXXXXXXXXX.  ",
"  .XXXXXX.XXXXXXXXXXXXX.XXXXXXXXXXXXX.  ",
"  ....................................  ",
"  .XXXXXXXXXXXXX.XXXXXXXXXXXXX.XXXXXX.  ",
"  .XXXXXXXXXXXXX.XXXXXXXXXXXXX.XXXXXX.  ",
"  .XXXXXXXXXXXXX.XXXXXXXXXXXXX.XXXXXX.  ",
"  .XXXXXXXXXXXXX.XXXXXXXXXXXXX.XXXXXX.  ",
"  .XXXXXXXXXXXXX.XXXXXXXXXXXXX.XXXXXX.  ",
"  .XXXXXXXXXXXXX.XXXXXXXXXXXXX.XXXXXX.  ",
"  ....................................  ",
"  .XXXXXX.XXXXXXXXXXXXX.XXXXXXXXXXXXX.  ",
"  .XXXXXX.XXXXXXXXXXXXX.XXXXXXXXXXXXX.  ",
"  .XXXXXX.XXXXXXXXXXXXX.XXXXXXXXXXXXX.  ",
"  .XXXXXX.XXXXXXXXXXXXX.XXXXXXXXXXXXX.  ",
"  .XXXXXX.XXXXXXXXXXXXX.XXXXXXXXXXXXX.  ",
"  .XXXXXX.XXXXXXXXXXXXX.XXXXXXXXXXXXX.  ",
"  ....................................  ",
"                                        ",
"                                        "
};
