/* XPM */
static char *_1e9871db76a4ddad4c42ec21fecf482hLdvl9jqmpD2HBrB[] = {
/* columns rows colors chars-per-pixel */
"40 40 108 2 ",
"   c None",
".  c #C74343",
"X  c #BA9B48",
"o  c #BB9C48",
"O  c #BB9C49",
"+  c #BB9D49",
"@  c #BA9C4A",
"#  c #BB9E4B",
"$  c #BC9D4A",
"%  c #BC9E4A",
"&  c #BC9E4B",
"*  c #BD9E4B",
"=  c #BD9F4B",
"-  c #BE9E4B",
";  c #BD9E4C",
":  c #BC9F4C",
">  c #BD9F4C",
",  c #BD9F4D",
"<  c #BE9F4C",
"1  c #BDA04C",
"2  c #BDA04D",
"3  c #BEA04D",
"4  c #BEA14D",
"5  c #BEA04E",
"6  c #BFA04E",
"7  c #BEA14E",
"8  c #C0A14F",
"9  c #C0A24F",
"0  c #C0A150",
"q  c #C0A250",
"w  c #C0A350",
"e  c #C1A352",
"r  c #C1A452",
"t  c #C2A654",
"y  c #C3A755",
"u  c #C4A755",
"i  c #C5A856",
"p  c #C7AB59",
"a  c #CAAF5E",
"s  c #CBAF5E",
"d  c #CEB362",
"f  c #CFB462",
"g  c #CFB464",
"h  c #D1B766",
"j  c #D1B767",
"k  c #D7BF6F",
"l  c #DBC273",
"z  c #DBC373",
"x  c #DFC778",
"c  c #E4CE7E",
"v  c #4E7AB5",
"b  c #507BB5",
"n  c #517BB7",
"m  c #517CB7",
"M  c #507CB8",
"N  c #517DB9",
"B  c #527FB9",
"V  c #557EB8",
"C  c #557FB8",
"Z  c #5580B8",
"A  c #5680B8",
"S  c #5680B9",
"D  c #5681B9",
"F  c #648FC9",
"G  c #6792CD",
"H  c #709CD7",
"J  c #74A1DB",
"K  c #F78F8F",
"L  c #E5CE80",
"P  c #E5CF80",
"I  c #E4CE81",
"U  c #E4CF81",
"Y  c #E5CF82",
"T  c #F5CE85",
"R  c #EAD588",
"E  c #EDD88B",
"W  c #EED98D",
"Q  c #EEDA8D",
"!  c #EFDA8E",
"~  c #F6D187",
"^  c #F6D188",
"/  c #F0DC8F",
"(  c #F0DD8F",
")  c #F1DD90",
"_  c #F1DD91",
"`  c #F2DE92",
"'  c #F3DF93",
"]  c #FADD92",
"[  c #FADD93",
"{  c #F3E094",
"}  c #F4E195",
"|  c #F6E397",
" . c #F7E498",
".. c #FEECA1",
"X. c #FEEDA2",
"o. c #FFEDA2",
"O. c #FFEEA2",
"+. c #FFEEA3",
"@. c #89A7CE",
"#. c #94AFD3",
"$. c #81ADE6",
"%. c #8BB7F0",
"&. c #B1C4DF",
"*. c #BDCEE4",
"=. c #E2E9F3",
"-. c #F7F9FC",
";. c #F9FBFD",
":. c white",
/* pixels */
"                                                                                ",
"              v v v v v v v v v . . . . . . v v v v v v v v v                   ",
"              v %.%.%.v :.:.:.:.. K K K K . :.:.:.:.v %.%.%.v                   ",
"              v %.%.%.v :.:.:.:.. K K K K . :.:.:.:.v %.%.%.v                   ",
"              v %.%.%.v :.:.:.:.. K K K K . :.:.:.:.v %.%.%.v                   ",
"              v %.%.%.v :.:.:.:.. K K K K . :.:.:.:.v %.%.%.v                   ",
"              v %.%.%.v :.:.:.:.. K K K K . :.:.:.:.v %.%.%.v                   ",
"              v %.%.%.v :.:.:.:.. K K K K . :.:.:.:.v %.%.%.v                   ",
"              v $.%.%.v :.:.:.:.. K K K K . :.:.:.:.v %.%.$.b                   ",
"                M H %.v :.:.:.:.. K K K K . :.:.:.:.v %.J M                     ",
"                  M F v :.:.:.:.. K K K K . :.:.:.:.v G M                       ",
"                    M v =.:.:.:.. K K K K . :.:.:.=.v M                         ",
"                      M C *.:.:.. K K K K . :.:.*.S b                           ",
"                          b @.-.. K K K K . ;.#.S                               ",
"                            S v . . . . . . v S                                 ",
"                                - Q +.+.Q 4                                     ",
"                                  - X X >                                       ",
"                                    4 4                                         ",
"                                    e e                                         ",
"                                  4 Y Y 4                                       ",
"                                  e ..+.e                                       ",
"                                4 c +.+.Y 4                                     ",
"                                e ..+.+...4                                     ",
"                              - I +.+.+.+.c >                                   ",
"                  > 8 > X y d l +.+.+.+.+.+.l d y # > e 8                       ",
"                X k E  .+.+.+.+.+.+.+.+.+.+.+.+.+.+. .E k o                     ",
"                  4 ' +.+.+.+.+.+.] T ^ ] +.+.+.+.+.+.} 8                       ",
"                    > ` +.+.+.+.] T T T T ] +.+.+.+.` >                         ",
"                      > / +.+.+.^ T T T T ^ +.+.+.` 4                           ",
"                        > ) +.+.^ T T T T ^ +.+.` >                             ",
"                          > +.+.[ T T T T [ +.+.>                               ",
"                          p +.+...] ^ ^ [ +.+.+.u                               ",
"                          h +.+.+.+.+.+.+.+.+.+.g                               ",
"                        - x +.+.+.+.+.+.+.+.+.+.x 4                             ",
"                        4 R +.+.+.Q p p Q +.+.+.R e                             ",
"                        4 } +.` s >     > s ` +.} >                             ",
"                        - ' g >             > a ` >                             ",
"                        # #                     # #                             ",
"                                                                                ",
"                                                                                "
};
