/* XPM */
static char *b756a3f97d594c63f61b646d2a914222Kz28cS8DZUch5YUn[] = {
/* columns rows colors chars-per-pixel */
"64 64 18 1 ",
"  c None",
". c #170625",
"X c #1F2B40",
"o c #3B3B51",
"O c #CE0A19",
"+ c #FF2E3E",
"@ c #867B35",
"# c #F7460E",
"$ c #FF7135",
"% c #8B7F7E",
"& c #FF9435",
"* c #FFB635",
"= c #C2C04E",
"- c #F6FE6D",
"; c #FF8F91",
": c #FFBBB5",
"> c #DFD9C8",
", c #FFFEE8",
/* pixels */
"                                                                ",
"                                                                ",
"                                                                ",
"                                                                ",
"                                                                ",
"                                                                ",
"                                                                ",
"                                                                ",
"                                                                ",
"                                                                ",
"                                                                ",
"                                                                ",
"                                                                ",
"                                                                ",
"                                                                ",
"                                                                ",
"                                                                ",
"                                                                ",
"                                                                ",
"                                                                ",
"                                                                ",
"                                                                ",
"                                                                ",
"                                                                ",
"                                                                ",
"                            ........                            ",
"                           .,>,,>,>,.                           ",
"                          .,>--=@@@>,.                          ",
"                          .>@==@-==@>.                          ",
"                          .>#$&*,,,:,.                          ",
"                          .,##$&,,:+>.                          ",
"                          .%,##$;+O>%.                          ",
"                          ..%>,>,,>%..                          ",
"                          ............                          ",
"                          ....X.X.....                          ",
"                          .....XoX....                          ",
"                           .....X....                           ",
"                            ...X....                            ",
"                                                                ",
"                                                                ",
"                                                                ",
"                                                                ",
"                                                                ",
"                                                                ",
"                                                                ",
"                                                                ",
"                                                                ",
"                                                                ",
"                                                                ",
"                                                                ",
"                                                                ",
"                                                                ",
"                                                                ",
"                                                                ",
"                                                                ",
"                                                                ",
"                                                                ",
"                                                                ",
"                                                                ",
"                                                                ",
"                                                                ",
"                                                                ",
"                                                                ",
"                                                                "
};
