/* XPM */
static char *door_open[] = {
/* columns rows colors chars-per-pixel */
"32 32 5 1 ",
"  c none",
". c #7D3007",
"X c #AF5423",
"o c #80878C",
"O c #9EA8A7",
/* pixels */
"oooo                            ",
"oooo                            ",
"oooo                            ",
"oooo                            ",
"....                            ",
"....                            ",
"....                            ",
"....                            ",
"OOOO                            ",
"OOOO                            ",
"OOOO                            ",
"OOOO                            ",
"....                            ",
"....                            ",
"....                            ",
"....                            ",
"XXXX                            ",
"XXXX                            ",
"XXXX                            ",
"XXXX                            ",
"OOOO                            ",
"OOOO                            ",
"OOOO                            ",
"OOOO                            ",
"....                            ",
"....                            ",
"....                            ",
"....                            ",
"OOOO                            ",
"OOOO                            ",
"OOOO                            ",
"OOOO                            "
};
