/* XPM */
static char *c292335f4aa141b2eef31d475cdcd44cyqybBWchskPr0KNz[] = {
/* columns rows colors chars-per-pixel */
"64 64 24 1 ",
"  c None",
". c #361B1B",
"X c #7A1212",
"o c #7E1818",
"O c #79390A",
"+ c #4D2C2C",
"@ c #62507E",
"# c #971A1A",
"$ c #BF0000",
"% c #B42626",
"& c #FF0707",
"* c #E93100",
"= c #BE8420",
"- c #A39639",
"; c #FFD800",
": c #FFFC2E",
"> c #E2A557",
", c #D4A870",
"< c #E2D15D",
"1 c #81709A",
"2 c #FAC786",
"3 c #FAEB84",
"4 c #A096D1",
"5 c #C3CBDB",
/* pixels */
"                                                                ",
"                                                                ",
"                                                                ",
"                                                                ",
"                                        *                       ",
"                                     *      *                   ",
"                                     *     ***                  ",
"                                         *****                  ",
"                                        *****                   ",
"                                      ***:**  **                ",
"                                      **::**                    ",
"                                      **:*                      ",
"                                      *::***                    ",
"                  =      =          $  ::***   $                ",
"                  =      =      222    $:*$                     ",
"                  O      O     22222  * ::$$$ *                 ",
"                  O=    =O     &2&2,   $*:*$$ *                 ",
"                  OO=  =OO  <  2222,  o<*::$$                   ",
"                   OO=OOO   <% ,2222oo<*::::*                   ",
"                =   O*;O   = <o,,2,oo<*2:2:>* $                 ",
"                O= =O$*O= =O <%o,,o<<**:,22:$ $                 ",
"                OO=OO$$OO=OO .<%oo<..+$*2>,*$                   ",
"                 OO O==O OO ++.....++++:>,:*$                   ",
"                    OOOO    %++++++....$,$$*                    ",
"                     OO     %.+++..%%##<,X<                     ",
"                     OO     %<....%###%<XX-                     ",
"                    2222    %<#.<%%###%%-X-                     ",
"                    2,22,X<%%<%#<%#####%#-#                     ",
"                    ,,,,XX<%%<%%<%### ####                      ",
"                     OO XX-#%<%%<%##   ##                       ",
"                     OO XX-#%<%%<###                            ",
"                     OO     %<%%<##                             ",
"                     OO     #<%<%##                             ",
"                     OO     5555%##                             ",
"                     OO     @5@4+++                             ",
"                     OO    35544++.3                            ",
"                     OO   <-414+..3<<                           ",
"                     OO   --1.4.##3<<<                          ",
"                     OO  <-#....##3<<<3                         ",
"                     OO  3-#<..<##3<<3                          ",
"                     OO  --#<%%<##333<<                         ",
"                     OOO<-##<%%<##3<<<3                         ",
"                      OO3-#%<%%<##3<33<                         ",
"                      OO<-#%<%%<###33<<3                        ",
"                      OO -#%<%%<####%33                         ",
"                      OO ##%<%%%<#%#%%                          ",
"                      OO #%%<%%%<#%%%%                          ",
"                      OO #%%<%%%<#%%%%                          ",
"                      OO #%#<%%%<#%%%%%                         ",
"                      OO #%#<%%%<#%%%%%                         ",
"                      OOO###<%%%<#%%%%%                         ",
"                      OOO###<%%%<#%%%%%%                        ",
"                      OOO###<%%%<#%%%#%%                        ",
"                       OO###<%%%<#%%###%%                       ",
"                       OO###<%%%<#%%###%%                       ",
"                       OO###<%%%<#######                        ",
"                       OO###<%%%<### ##                         ",
"                       OO# %<#%%<###                            ",
"                       OO   <%% <##                             ",
"                                                                ",
"                                                                ",
"                                                                ",
"                                                                ",
"                                                                "
};
