/* XPM */
static char *_76adf116d404d95d2d7f789618f040eh0ptKdFjptDU9ONp[] = {
/* columns rows colors chars-per-pixel */
"64 64 24 1 ",
"  c None",
". c #361B1B",
"X c #7A1212",
"o c #7E1818",
"O c #79390A",
"+ c #4D2C2C",
"@ c #62507E",
"# c #971A1A",
"$ c #BF0000",
"% c #B42626",
"& c #FF0707",
"* c #E93100",
"= c #BE8420",
"- c #A39639",
"; c #FFD800",
": c #FFFC2E",
"> c #E2A557",
", c #D4A870",
"< c #E2D15D",
"1 c #81709A",
"2 c #FAC786",
"3 c #FAEB84",
"4 c #A096D1",
"5 c #C3CBDB",
/* pixels */
"                                                                ",
"                                                                ",
"                                                                ",
"                                                                ",
"                       *                                        ",
"                   *      *                                     ",
"                  ***     *                                     ",
"                  *****                                         ",
"                   *****                                        ",
"                **  **:***                                      ",
"                    **::**                                      ",
"                      *:**                                      ",
"                    ***::*                                      ",
"                $   ***::  $          =      =                  ",
"                     $*:$    222      =      =                  ",
"                 * $$$:: *  22222     O      O                  ",
"                 * $$*:*$   ,2&2&     O=    =O                  ",
"                   $$::*<o  ,2222  <  OO=  =OO                  ",
"                   *::::*<oo2222, %<   OOO=OO                   ",
"                 $ *>:2:2*<oo,2,,o< =   O;*O   =                ",
"                 $ $:22,:**<<o,,o%< O= =O*$O= =O                ",
"                   $*,>2*$+..<oo%<. OO=OO$$OO=OO                ",
"                   $*:,>:++++.....++ OO O==O OO                 ",
"                    *$$,$....++++++%    OOOO                    ",
"                     <X,<##%%..+++.%     OO                     ",
"                     -XX<%###%....<%     OO                     ",
"                     -X-%%###%%<.#<%    2222                    ",
"                     #-#%#####%<#%<%%<X,22,2                    ",
"                      #### ###%<%%<%%<XX,,,,                    ",
"                       ##   ##%<%%<%#-XX OO                     ",
"                            ###<%%<%#-XX OO                     ",
"                             ##<%%<%     OO                     ",
"                             ##%<%<#     OO                     ",
"                             ##%5555     OO                     ",
"                             +++4@5@     OO                     ",
"                            3.++44553    OO                     ",
"                           <<3..+414-<   OO                     ",
"                          <<<3##.4.1--   OO                     ",
"                         3<<<3##....#-<  OO                     ",
"                          3<<3##<..<#-3  OO                     ",
"                         <<333##<%%<#--  OO                     ",
"                         3<<<3##<%%<##-<OOO                     ",
"                         <33<3##<%%<%#-3OO                      ",
"                        3<<33###<%%<%#-<OO                      ",
"                         33%####<%%<%#- OO                      ",
"                          %%#%#<%%%<%## OO                      ",
"                          %%%%#<%%%<%%# OO                      ",
"                          %%%%#<%%%<%%# OO                      ",
"                         %%%%%#<%%%<#%# OO                      ",
"                         %%%%%#<%%%<#%# OO                      ",
"                         %%%%%#<%%%<###OOO                      ",
"                        %%%%%%#<%%%<###OOO                      ",
"                        %%#%%%#<%%%<###OOO                      ",
"                       %%###%%#<%%%<###OO                       ",
"                       %%###%%#<%%%<###OO                       ",
"                        #######<%%%<###OO                       ",
"                         ## ###<%%%<###OO                       ",
"                            ###<%%#<% #OO                       ",
"                             ##< %%<   OO                       ",
"                                                                ",
"                                                                ",
"                                                                ",
"                                                                ",
"                                                                "
};
