/* XPM */
static char *_4efccb1bc674a8999f7334143e0c6c7ID6mOwdNfO8PnfKX[] = {
/* columns rows colors chars-per-pixel */
"64 64 163 2 ",
"   c None",
".  c #15092D",
"X  c #150F3B",
"o  c #16103C",
"O  c #161342",
"+  c #161648",
"@  c #171F5C",
"#  c #16205E",
"$  c #371A77",
"%  c #321E7A",
"&  c #172262",
"*  c #1A2368",
"=  c #1B2A76",
"-  c #1C2C7B",
";  c #2D227B",
":  c #232A7D",
">  c #31207C",
",  c #1D2E80",
"<  c #1F3087",
"1  c #1F3189",
"2  c #2C2A8A",
"3  c #2D2A8B",
"4  c #312383",
"5  c #20328C",
"6  c #2C2C90",
"7  c #223494",
"8  c #293093",
"9  c #24379C",
"0  c #25389E",
"q  c #263AA5",
"w  c #273CA9",
"e  c #293DAC",
"r  c #3134A3",
"t  c #2A3FB2",
"y  c #2B40B5",
"u  c #2D43BD",
"i  c #2863B4",
"p  c #2E45C2",
"a  c #2F48CA",
"s  c #314ACE",
"d  c #2B56C4",
"f  c #314CD4",
"g  c #334EDB",
"h  c #3450DF",
"j  c #2B73D3",
"k  c #3450E0",
"l  c #3159E1",
"z  c #2C67E0",
"x  c #2A6FE0",
"c  c #3260E3",
"v  c #2777E0",
"b  c #2973E1",
"n  c #257DE0",
"m  c #2E7CE2",
"M  c #2F7AEA",
"N  c #747BDC",
"B  c #9553CF",
"V  c #8D56D0",
"C  c #9653D0",
"Z  c #9C5ED2",
"A  c #8864D4",
"S  c #9D60D3",
"D  c #A369D6",
"F  c #AE7CDA",
"G  c #B07EDC",
"H  c #2C86DE",
"J  c #1FB4CD",
"K  c #21A6D3",
"L  c #21BAD6",
"P  c #1F8EE0",
"I  c #1F93E3",
"U  c #2286E0",
"Y  c #208CE0",
"T  c #2C88E5",
"R  c #2E81EC",
"E  c #3D85E6",
"W  c #2793E7",
"Q  c #2A93E3",
"!  c #209FE8",
"~  c #3697E4",
"^  c #3C9CE4",
"/  c #2B94F0",
"(  c #1FA7E4",
")  c #1FB6E5",
"_  c #28A5E6",
"`  c #28A8E4",
"'  c #29ABE7",
"]  c #21A1E9",
"[  c #21A9EC",
"{  c #23B2EE",
"}  c #3AB3ED",
"|  c #2AA3F3",
" . c #28B3F7",
".. c #23BBF3",
"X. c #39BCF7",
"o. c #448ADF",
"O. c #53B2DD",
"+. c #6986E2",
"@. c #49A3E6",
"#. c #4EA4EE",
"$. c #57AAE8",
"%. c #5EAEE9",
"&. c #5BB4EC",
"*. c #40B3F3",
"=. c #64B1EA",
"-. c #6AB4EA",
";. c #73B8EC",
":. c #1EC7E5",
">. c #1DD5E6",
",. c #23CCE8",
"<. c #22D3E7",
"1. c #22DEE9",
"2. c #37D4E7",
"3. c #22CCF3",
"4. c #26C3FA",
"5. c #25CAFB",
"6. c #32C3F9",
"7. c #27D7F5",
"8. c #24D3FF",
"9. c #22DCFA",
"0. c #33D6FE",
"q. c #3BD7FE",
"w. c #3FD9FE",
"e. c #1DE5E7",
"r. c #1EF4EE",
"t. c #1CFEE9",
"y. c #1FEEF1",
"u. c #1FF0F0",
"i. c #24E5E8",
"p. c #21E5F6",
"a. c #20EAF3",
"s. c #22E1F8",
"d. c #4EC9F9",
"f. c #40D9FF",
"g. c #4DDBFF",
"h. c #57DBFD",
"j. c #6BE1FE",
"k. c #76E4FF",
"l. c #80BFEC",
"z. c #CBACE7",
"x. c #D0B3EA",
"c. c #8EC6EF",
"v. c #8FC7F0",
"b. c #8BDAF8",
"n. c #ABD5F3",
"m. c #85E7FE",
"M. c #92E9FE",
"N. c #9FEBFE",
"B. c #ADEFFF",
"V. c #B5F0FE",
"C. c #DBC6EE",
"Z. c #C7E3F7",
"A. c #CBE4F6",
"S. c #C7E7F9",
"D. c #D4E9F7",
"F. c #D5EAF9",
"G. c #DBEDF9",
"H. c #C7F4FE",
"J. c #C9F4FF",
"K. c #DAF8FF",
"L. c #E3F1FA",
"P. c #E4F9FE",
"I. c white",
/* pixels */
"                                                  f.f.f.f.f.w.f.                                                                ",
"                                                q.8.8.8.8.8.8.8.f.P.                                                            ",
"                                                8.8.8.8.8.8.H.J.8.h.&.F.                                                        ",
"                                                B.B.B.B.[ 8.k.  8.8...&.G.                                                      ",
"                                                      ;.I [ ( k.8.8.8.] %.Z.                                                    ",
"                                                  c.v.P P P P { 8.a.y.] I =.D.                                                  ",
"                                                n.;.;.Y P P P P | e.t.,.I I ;.n.F.                                              ",
"                                              n.;.n.n.Y P P P v k / r.y...I P P v.                                              ",
"                                              P I.P P P U n n k k k i.t.p.[ P P ;.G.                                            ",
"                                              Y L.P P U k k k k k k  .y.t.) I Y P ;.                                            ",
"                                            L.I P P U k k k k k k k h | y.a.] Y P -.                                            ",
"                                            P P P P k k k k k k k k k k <.p.R x P P ;.                                          ",
"                                            P P P k k k k k k k k p h h <.t.Q x P P ;.                                          ",
"                                    f.      P P l k k k k k p p p u p p { u.9.[ P P ;.                                          ",
"                                    P.    ^ P P k 4.4.k k p u u u u u u d L s./ b P Q -.                                        ",
"                                          Y P .. .r.r.k p u u q q q q q q J ' c x P P $.K.j.                                    ",
"                                        ;.Y P 8.y.t.Q k u u w q q q 9 9 9 J Q k l v P $.H.w.                                    ",
"                                        P P { y.t._ k f u e 9 9 9 9 9 0 9 K H f k l v $.J.0.B.                                  ",
"                                      v.P P 8.t.' l g 9 0 0 9 9 9 9 3 3 3 i d s k k z $.P.m.f.                                  ",
"                                      Y P [ e.t.k h u , 7 9 7 7 7 7 3 4 > 8 t s k l v $.  P.w.                                  ",
"                                      P P 9.t.r.k h , 7 y 9 , , - - 7 9 ; 3 e f k z P @.S.V.f.                                  ",
"                                      P P 8.t. .k a - y 0 7 - - & = - 9 3 > r s k z U P ! 8.f.                                  ",
"                                    L.P P 9.r.k h 1 < 9 q , - & & & - 7 9 5 q s k k z P ! 8.q.                                  ",
"                                    Y P P t.8.k u u u 9 q , & & & & - 7 9 1 w s k k z P ! 8.6.B                                 ",
"                                      P 8.t.k k k u q 9 , , & & & & - - 7 1 w f k k z P ! 6.B B                                 ",
"                                      H t.t.k k u u $ $ $ $ & & & & & - , q u u f k z I ( 6.D                                   ",
"                                      3.t.t.k k p % $ 7 : * & & & & & - , w u u a k z I 5.6.D                                   ",
"                                      N t.n h k u $ $ < , & & & X # & - , 1 e u s k z [ 8.6.D                                   ",
"                                    G V e.k h p u $ 8 , , & & o . # & = 7 1 5 q f k z I 8.6.D                                   ",
"                                    B O.( k k u u r 9 , , & O . . X # - 7 7 1 q s k z I X.N D                                   ",
"                                  z.B t.H k k u u q 9 , , * . . . O # - 7 9 5 0 f k z ( } Z x.                                  ",
"                                  C +.y.P k k u u , 0 - - & + . . @ & - 7 9 0 y g k z ] *.D                                     ",
"                                  C +.u.P k k u u , 9 - - & + . . @ & - 7 9 9 y g k z ] *.D                                     ",
"                                  C 8...P k k u u - q 1 , & & O O # & = 7 9 t s k k x { *.D                                     ",
"                                  C } Y P k k a u - y - - * & & & & & - 1 7 t f k k R 8.*.D                                     ",
"                                  C C P P k k k u - 5 , - & & & & & & - = 1 w p k k R 8.*.D                                     ",
"                                  C A P P k k k u 5 , 9 5 * & & & & & - , 7 7 y k k R 8.} D                                     ",
"                                  C 8.P P k k k u y u - 9 - & & & & & = , w u s k g R 8.*.D                                     ",
"                                  C     P k k k k u u - - < & & & & - , > r 7 t k k R 8.*.D                                     ",
"                                  C 8.  W k k k g u t 5 - - & & & & - , % r u s k k R *.B D                                     ",
"                                  C 8.~ P g k k k g u - , , - * - - , , 7 1 w s g M 7.2.F                                       ",
"                                  *.8.H P n k k k k u , : , < - , , ; % 7 9 e f k T r.1.o.-.                                    ",
"                                I.8.8.I P P k k k k u , % % - - , , % 3 9 w u s Q e.r.3.@.A.                                    ",
"                                I.8.8.n.P P k ! k k u q : $ ; - , , 6 7 9 t a g ` e.) [ $.                                      ",
"                                  M.8.  Y P k 8.' ` s u 9 3 3 , , , 9 q w t f m <.>.P P $.                                      ",
"                                    8.  c.P k 5.a.t.g s u w 9 - , 1 7 w t t s _ e.) P ^ n.                                      ",
"                                    8.    P z #.8.t.k k u w w 5 1 9 7 t u t j ,.:.P P $.                                        ",
"                                    8.    I Y C *.t.m k u - u q 9 9 , w u f { e.) P P %.                                        ",
"                                    8.    P P V B t.t.h p 5 u u 9 7 , 7 t s / W v P Q -.                                        ",
"                                    8.    P P l B i.t.h k u u u 9 1 1 t p p g v P P ;.                                          ",
"                                    8.    P P P B B t.h k h u u , , t u f k n P P P ;.                                          ",
"                                          P P P h B t.8.h h u u , t k k k k v P P ;.                                            ",
"                                          L.P P U B A r.k k h u , f k k k b P P P ;.                                            ",
"                                            L.P P H C t.e.k h g f k k n U P P P P ;.                                            ",
"                                            I.Y P P E 9.t. .g k k k k n P P P P ;.G.                                            ",
"                                            I.n.P P P 8.p.u.| k k b v U P P P =.D.      K.m.                                    ",
"                                                I P n.B.Q s.y.m v P P P P P P v.      K.j.f.                                    ",
"                                                v.P v.  l.{ a.[ { I P P P P =.b.J.    P.M.N.                                    ",
"                                                  ;.P n.n.P 8.8.8.( I P %.;.b.j.j.J.                                            ",
"                                                    ;.P H H #.#.8.8.[ ( b.B.h.8.g.B.                                            ",
"                                                      $.$.$.G C *.5.8.8.8.6.*.d.B.                                              ",
"                                                              D C X.6.6.6.N S x.                                                ",
"                                                                D D D D D D C.                                                  ",
"                                                                                                                                "
};
