/* XPM */
static char *c850cfa5950f4b5d80c4df3b9e0a53afuxomgDssuuiLVdpE[] = {
/* columns rows colors chars-per-pixel */
"64 64 12 1 ",
"  c None",
". c black",
"X c #131313",
"o c #1B1B1B",
"O c #571C27",
"+ c #891E2B",
"@ c #8A4836",
"# c #F5555D",
"$ c #B4B4B4",
"% c #F6CA9F",
"& c #C7CFDD",
"* c white",
/* pixels */
"                                                                ",
"                                                                ",
"                                                                ",
"                                                                ",
"                                                                ",
"                                                                ",
"                                                                ",
"                                                                ",
"                                                                ",
"                                                                ",
"                                                                ",
"                                                                ",
"                                                                ",
"                                                                ",
"                                                                ",
"                                                                ",
"                       *@                                       ",
"                      **@                                       ",
"                     **&@@   ++++OOOO                           ",
"                     *&&&@  +++++++OOOO                         ",
"                     *&&&@@++++++++++OOO                        ",
"                    **&&&&@++.....++++OOO                       ",
"                    *&&&&&@@.......++++OOO                      ",
"                    *&&&&&+@........+++OOO                      ",
"                   **&&&& +@@XXXXX...+++OOO                     ",
"                   *&&&&  +#@XX##XX..+++OOO                     ",
"                   *&&&   +#@@X##XX..+++OOOO                    ",
"                   *&&&   +XX@XXXXXX.+++OOOO                    ",
"                  **&&    +XX@@XXXXX+++OOOOOO                   ",
"                  *&&&    ++XX@XXXXX+++OOOOOO                   ",
"                  *&&&     +OX@@XXX+++OOOOOO                    ",
"                  *&&       OO+@+++++OOOOO                      ",
"                  *&&        OO@@OO+OOOO                        ",
"                  *&           O@O+++OO                         ",
"                  *&          OO@@++++O                         ",
"                  *&          O+O@O++OOO                        ",
"                  *&         +++O@@OOOOOO                       ",
"                  *          +++Oo@++++OOO                      ",
"                  *          ++++o%%++++OOO                     ",
"                  *          ++++o%%++++OOO                     ",
"                  *          ++++o%%@++++OOO                    ",
"                            O++++ooo@+++++OOO                   ",
"                            OO+++ooo@@++++OOOO                  ",
"                            OO++++ooo@++++OOOO                  ",
"                            OOOOO+ooo@@+OOOO                    ",
"                             OOOOOooo @OOOO                     ",
"                               $$$    @$$                       ",
"                                $$     $$                       ",
"                                                                ",
"                                                                ",
"                                                                ",
"                                                                ",
"                                                                ",
"                                                                ",
"                                                                ",
"                                                                ",
"                                                                ",
"                                                                ",
"                                                                ",
"                                                                ",
"                                                                ",
"                                                                ",
"                                                                ",
"                                                                "
};
