/* XPM */
static char *af98d83d3ea74babd3db775ff06b23eeasHvUSML4cah6RXH[] = {
/* columns rows colors chars-per-pixel */
"64 64 12 1 ",
"  c None",
". c black",
"X c #131313",
"o c #1B1B1B",
"O c #571C27",
"+ c #891E2B",
"@ c #8A4836",
"# c #F5555D",
"$ c #B4B4B4",
"% c #F6CA9F",
"& c #C7CFDD",
"* c white",
/* pixels */
"                                                                ",
"                                                                ",
"                                                                ",
"                                                                ",
"                                                                ",
"                                                                ",
"                                                                ",
"                                                                ",
"                                                                ",
"                                                                ",
"                                                                ",
"                                                                ",
"                                                                ",
"                                                                ",
"                                                                ",
"                                                                ",
"                                       @*                       ",
"                                       @**                      ",
"                           OOOO++++   @@&**                     ",
"                         OOOO+++++++  @&&&*                     ",
"                        OOO++++++++++@@&&&*                     ",
"                       OOO++++.....++@&&&&**                    ",
"                      OOO++++.......@@&&&&&*                    ",
"                      OOO+++........@+&&&&&*                    ",
"                     OOO+++...XXXXX@@+ &&&&**                   ",
"                     OOO+++..XX##XX@#+  &&&&*                   ",
"                    OOOO+++..XX##X@@#+   &&&*                   ",
"                    OOOO+++.XXXXXX@XX+   &&&*                   ",
"                   OOOOOO+++XXXXX@@XX+    &&**                  ",
"                   OOOOOO+++XXXXX@XX++    &&&*                  ",
"                    OOOOOO+++XXX@@XO+     &&&*                  ",
"                      OOOOO+++++@+OO       &&*                  ",
"                        OOOO+OO@@OO        &&*                  ",
"                         OO+++O@O           &*                  ",
"                         O++++@@OO          &*                  ",
"                        OOO++O@O+O          &*                  ",
"                       OOOOOO@@O+++         &*                  ",
"                      OOO++++@oO+++          *                  ",
"                     OOO++++%%o++++          *                  ",
"                     OOO++++%%o++++          *                  ",
"                    OOO++++@%%o++++          *                  ",
"                   OOO+++++@ooo++++O                            ",
"                  OOOO++++@@ooo+++OO                            ",
"                  OOOO++++@ooo++++OO                            ",
"                    OOOO+@@ooo+OOOOO                            ",
"                     OOOO@ oooOOOOO                             ",
"                       $$@    $$$                               ",
"                       $$     $$                                ",
"                                                                ",
"                                                                ",
"                                                                ",
"                                                                ",
"                                                                ",
"                                                                ",
"                                                                ",
"                                                                ",
"                                                                ",
"                                                                ",
"                                                                ",
"                                                                ",
"                                                                ",
"                                                                ",
"                                                                ",
"                                                                "
};
